<svg width="30" height="30" viewBox="0 0 30 30" fill="none" xmlns="http://www.w3.org/2000/svg">
<path d="M17.8689 14.87C17.8689 16.46 16.5789 17.74 14.9989 17.74C13.4189 17.74 12.1289 16.45 12.1289 14.87C12.1289 13.29 13.4189 12 14.9989 12C16.5789 12 17.8689 13.28 17.8689 14.87Z" fill="#0D7CE4"/>
<path d="M21.7114 9.98C21.5714 9.61 21.3514 9.27 21.0714 8.99C20.7914 8.7 20.4514 8.48 20.0814 8.35C19.7814 8.23 19.3214 8.09 18.4814 8.05C17.5714 8.01 17.3014 8 15.0014 8C12.7014 8 12.4314 8.01 11.5214 8.05C10.6814 8.09 10.2214 8.23 9.92141 8.35C9.55141 8.48 9.21141 8.7 8.93141 8.99C8.64141 9.27 8.42141 9.61 8.29141 9.98C8.17141 10.28 8.03141 10.74 7.99141 11.58C7.95141 12.49 7.94141 12.76 7.94141 15.06C7.94141 17.36 7.95141 17.63 7.99141 18.54C8.03141 19.38 8.17141 19.84 8.29141 20.14C8.43141 20.51 8.65141 20.85 8.93141 21.13C9.21141 21.42 9.55141 21.64 9.92141 21.77C10.2214 21.89 10.6814 22.03 11.5214 22.07C12.4314 22.11 12.7014 22.12 15.0014 22.12C17.3014 22.12 17.5714 22.11 18.4814 22.07C19.3214 22.03 19.7814 21.89 20.0814 21.77C20.8314 21.48 21.4214 20.89 21.7114 20.14C21.8314 19.84 21.9714 19.38 22.0114 18.54C22.0514 17.63 22.0614 17.36 22.0614 15.06C22.0614 12.76 22.0514 12.49 22.0114 11.58C21.9714 10.74 21.8314 10.28 21.7114 9.98ZM15.0014 19.48C12.5614 19.48 10.5814 17.5 10.5814 15.06C10.5814 12.62 12.5614 10.64 15.0014 10.64C17.4414 10.64 19.4214 12.62 19.4214 15.06C19.4214 17.5 17.4414 19.48 15.0014 19.48ZM19.6014 11.5C19.0314 11.5 18.5714 11.04 18.5714 10.47C18.5714 9.9 19.0314 9.44 19.6014 9.44C20.1714 9.44 20.6314 9.9 20.6314 10.47C20.6314 11.03 20.1714 11.5 19.6014 11.5Z" fill="#0D7CE4"/>
<path d="M15 0C6.72 0 0 6.72 0 15C0 23.28 6.72 30 15 30C23.28 30 30 23.28 30 15C30 6.72 23.28 0 15 0ZM23.56 18.55C23.52 19.47 23.37 20.09 23.16 20.64C22.71 21.8 21.8 22.71 20.64 23.16C20.09 23.37 19.47 23.52 18.55 23.56C17.63 23.6 17.34 23.61 15 23.61C12.66 23.61 12.37 23.6 11.45 23.56C10.53 23.52 9.91 23.37 9.36 23.16C8.79 22.94 8.26 22.6 7.83 22.17C7.39 21.74 7.05 21.22 6.84 20.64C6.63 20.09 6.48 19.47 6.44 18.55C6.4 17.63 6.39 17.34 6.39 15C6.39 12.66 6.4 12.37 6.44 11.45C6.48 10.53 6.63 9.91 6.84 9.36C7.06 8.79 7.4 8.26 7.83 7.83C8.26 7.39 8.78 7.05 9.36 6.84C9.91 6.63 10.53 6.48 11.45 6.44C12.37 6.4 12.66 6.39 15 6.39C17.34 6.39 17.63 6.4 18.55 6.44C19.47 6.48 20.09 6.63 20.64 6.84C21.21 7.06 21.74 7.4 22.17 7.83C22.61 8.26 22.95 8.78 23.16 9.36C23.37 9.91 23.52 10.53 23.56 11.45C23.6 12.37 23.61 12.66 23.61 15C23.61 17.34 23.6 17.63 23.56 18.55Z" fill="#0D7CE4"/>
</svg>
