<svg width="30" height="30" viewBox="0 0 30 30" fill="none" xmlns="http://www.w3.org/2000/svg">
<path d="M15 0C6.72 0 0 6.72 0 15C0 23.28 6.72 30 15 30C23.28 30 30 23.28 30 15C30 6.72 23.28 0 15 0ZM10.64 22.68H6.99V11.69H10.64V22.68ZM8.81 10.18H8.79C7.56 10.18 6.77 9.34 6.77 8.28C6.77 7.2 7.59 6.38 8.84 6.38C10.09 6.38 10.86 7.2 10.88 8.28C10.88 9.34 10.09 10.18 8.81 10.18ZM23.81 22.68H20.16V16.8C20.16 15.32 19.63 14.31 18.31 14.31C17.3 14.31 16.7 14.99 16.44 15.65C16.34 15.88 16.32 16.21 16.32 16.54V22.68H12.67C12.67 22.68 12.72 12.72 12.67 11.69H16.32V13.25C16.81 12.5 17.67 11.44 19.61 11.44C22.01 11.44 23.82 13.01 23.82 16.39V22.68H23.81Z" fill="#0D7CE4"/>
</svg>
