<svg width="146" height="50" viewBox="0 0 146 50" fill="none" xmlns="http://www.w3.org/2000/svg">
<g clip-path="url(#clip0_25:6)">
<path d="M80.343 50C70.8095 50 61.7326 45.8873 55.4355 38.7171L58.5023 36.0237C64.025 42.3115 71.985 45.9182 80.343 45.9182C88.701 45.9182 96.661 42.3115 102.184 36.0237L105.25 38.7171C98.9534 45.8873 89.8765 50 80.343 50Z" fill="#0D7CE4"/>
<path d="M105.855 44.2429L101.943 43.0766C102.467 41.3149 102.471 39.4514 101.952 37.6805C101.619 36.5451 101.085 35.4961 100.363 34.5644L103.594 32.0653C104.627 33.4012 105.395 34.9037 105.871 36.5328C106.611 39.0596 106.608 41.7253 105.855 44.2429Z" fill="#0D7CE4"/>
<path d="M54.8282 44.2429C53.5817 40.0623 54.4271 35.5084 57.0897 32.0653L60.32 34.5644C58.4596 36.9709 57.8672 40.1518 58.7403 43.0766L54.8282 44.2429Z" fill="#0D7CE4"/>
<path d="M23.3154 2.60089H31.3588V30.6646H25.0648V13.387L17.8144 30.6646H13.5043L6.31556 13.4642V30.6646H0V2.60089H8.14205L15.7102 20.8133L23.3154 2.60089Z" fill="#0D7CE4"/>
<path d="M39.3248 7.26891C38.2913 7.26891 37.4243 6.92336 36.724 6.23535C36.0205 5.54733 35.6719 4.6742 35.6719 3.61286C35.6719 2.57929 36.0236 1.7185 36.724 1.03048C37.4243 0.345551 38.2913 0 39.3248 0C40.3831 0 41.2686 0.345551 41.9751 1.03357C42.6816 1.72158 43.0364 2.58238 43.0364 3.61595C43.0364 4.6742 42.6816 5.55041 41.9751 6.23843C41.2686 6.92336 40.3831 7.26891 39.3248 7.26891ZM36.3661 30.6646V9.93151H42.3052V30.6677H36.3661V30.6646Z" fill="#0D7CE4"/>
<path d="M47.0098 30.6646V1.36987H52.9489V30.6646H47.0098Z" fill="#0D7CE4"/>
<path d="M75.61 28.0421C73.4781 30.1216 70.8124 31.1613 67.6161 31.1613C64.4197 31.1613 61.7541 30.1216 59.6221 28.0421C57.4902 25.9626 56.4258 23.3772 56.4258 20.2857C56.4258 17.1943 57.4902 14.6119 59.6221 12.5386C61.7541 10.4653 64.4197 9.4317 67.6161 9.4317C70.8124 9.4317 73.4781 10.4684 75.61 12.5386C77.742 14.6119 78.8064 17.1943 78.8064 20.2857C78.8064 23.3802 77.742 25.9657 75.61 28.0421ZM63.9816 23.951C64.9411 24.9321 66.1537 25.4196 67.6161 25.4196C69.0785 25.4196 70.2941 24.929 71.2598 23.951C72.2255 22.9699 72.7099 21.7512 72.7099 20.2857C72.7099 18.8233 72.2255 17.6046 71.2598 16.6327C70.2941 15.6609 69.0785 15.1734 67.6161 15.1734C66.1537 15.1734 64.9411 15.6609 63.9816 16.6327C63.0221 17.6046 62.5408 18.8233 62.5408 20.2857C62.5408 21.7512 63.019 22.973 63.9816 23.951Z" fill="#0D7CE4"/>
<path d="M94.4988 9.43479C97.3712 9.43479 99.7592 10.4714 101.66 12.5417C103.56 14.615 104.511 17.1973 104.511 20.2888C104.511 23.3802 103.56 25.9657 101.66 28.0452C99.7561 30.1216 97.3712 31.1613 94.4988 31.1613C91.9843 31.1613 89.8987 30.2203 88.2419 28.3414V30.6646H82.3027V1.36987H88.2419V12.2331C89.8956 10.3665 91.9812 9.43479 94.4988 9.43479ZM89.6827 23.951C90.6422 24.9321 91.8547 25.4196 93.3172 25.4196C94.7796 25.4196 95.9952 24.929 96.9609 23.951C97.9266 22.9699 98.411 21.7512 98.411 20.2857C98.411 18.8233 97.9266 17.6046 96.9609 16.6327C95.9952 15.6609 94.7796 15.1734 93.3172 15.1734C91.8547 15.1734 90.6422 15.6609 89.6827 16.6327C88.7232 17.6046 88.2419 18.8233 88.2419 20.2857C88.2419 21.7512 88.7201 22.973 89.6827 23.951Z" fill="#0D7CE4"/>
<path d="M123.216 9.93151H129.155V30.6677H123.216V28.3846C121.534 30.2265 119.442 31.1521 116.94 31.1644C114.093 31.1644 111.714 30.1247 109.801 28.0452C107.888 25.9657 106.932 23.3802 106.932 20.2888C106.932 17.1973 107.888 14.615 109.801 12.5417C111.714 10.4684 114.096 9.43478 116.94 9.43478C119.43 9.43478 121.522 10.3542 123.216 12.1961V9.93151ZM118.131 25.4227C119.6 25.4227 120.815 24.9321 121.775 23.9541C122.734 22.973 123.216 21.7543 123.216 20.2888C123.216 18.8264 122.731 17.6077 121.766 16.6358C120.8 15.664 119.587 15.1765 118.131 15.1765C116.687 15.1765 115.487 15.664 114.528 16.6358C113.568 17.6077 113.087 18.8264 113.087 20.2888C113.087 21.7512 113.565 22.973 114.528 23.9541C115.487 24.9321 116.687 25.4227 118.131 25.4227Z" fill="#0D7CE4"/>
<path d="M139.8 12.6898C141.402 10.6257 143.33 9.59213 145.579 9.59213V15.6886C143.737 15.6886 142.315 16.1638 141.309 17.1171C140.303 18.0705 139.8 19.3601 139.8 20.9891V30.6615H133.861V9.93151H139.8V12.6898Z" fill="#0D7CE4"/>
<path d="M67.6048 24.2009C68.6034 24.2009 69.4128 23.3914 69.4128 22.3929C69.4128 21.3944 68.6034 20.585 67.6048 20.585C66.6063 20.585 65.7969 21.3944 65.7969 22.3929C65.7969 23.3914 66.6063 24.2009 67.6048 24.2009Z" fill="#0D7CE4"/>
<path d="M93.3275 24.2009C94.326 24.2009 95.1355 23.3914 95.1355 22.3929C95.1355 21.3944 94.326 20.585 93.3275 20.585C92.329 20.585 91.5195 21.3944 91.5195 22.3929C91.5195 23.3914 92.329 24.2009 93.3275 24.2009Z" fill="#0D7CE4"/>
</g>
<defs>
<clipPath id="clip0_25:6">
<rect width="145.579" height="50" fill="white"/>
</clipPath>
</defs>
</svg>
