<svg width="272" height="45" viewBox="0 0 272 45" fill="none" xmlns="http://www.w3.org/2000/svg">
<path d="M4.15039 20.2266H4.25586C4.69531 20.2266 5.11719 20.4814 5.52148 20.9912C5.67969 21.2197 5.76758 21.4131 5.78516 21.5713C5.75 21.7295 5.66211 21.8262 5.52148 21.8613C4.95898 21.9492 4.50195 21.9932 4.15039 21.9932C3.21875 21.9756 2.41895 21.7031 1.75098 21.1758C1.18848 20.6836 0.898438 20.1387 0.880859 19.541C0.880859 19.3828 0.889648 19.2686 0.907227 19.1982C1.15332 17.8799 2.35742 16.2891 4.51953 14.4258C6.85742 12.4219 9.24805 10.9717 11.6914 10.0752C12.8691 9.63574 13.9062 9.41602 14.8027 9.41602C15.3301 9.41602 15.8047 9.49512 16.2266 9.65332C16.8242 9.89941 17.3604 10.2686 17.835 10.7607C18.9424 11.9561 19.4961 13.459 19.4961 15.2695C19.4785 17.6602 18.5381 20.7803 16.6748 24.6299C19.1709 21.3955 21.4473 19.5498 23.5039 19.0928C23.873 19.0049 24.2334 18.9609 24.585 18.9609C25.6396 18.9785 26.6152 19.2949 27.5117 19.9102C29.1641 21.0879 30.5 23.0918 31.5195 25.9219C32.7676 25.2715 34.6221 22.7139 37.083 18.249C37.6455 17.2295 38.5068 15.6211 39.667 13.4238C42.2861 8.44922 44.167 5.15332 45.3096 3.53613C46.1709 2.34082 46.918 1.5498 47.5508 1.16309C47.7793 1.02246 48.0254 0.952148 48.2891 0.952148C48.8516 0.987305 49.3525 1.37402 49.792 2.1123C49.915 2.32324 49.9766 2.66602 49.9766 3.14062C49.9766 5.17969 48.7021 10.251 46.1533 18.3545C45.9775 18.8994 45.8545 19.2949 45.7842 19.541C43.71 26.3262 42.5762 30.0615 42.3828 30.7471C41.3633 34.3682 40.625 37.4795 40.168 40.0811C39.957 41.4521 39.8516 42.5068 39.8516 43.2451C39.8516 43.5088 39.8779 43.6758 39.9307 43.7461C39.9834 43.8164 40.0273 43.8867 40.0625 43.957C40.1152 44.0273 40.1504 44.0977 40.168 44.168C40.2031 44.2383 40.2207 44.2998 40.2207 44.3525C40.2207 44.4053 40.2119 44.4492 40.1943 44.4844C40.1768 44.5195 40.1416 44.5547 40.0889 44.5898C40.0537 44.625 40.0098 44.6426 39.957 44.6426H39.7988C39.1133 44.6426 38.5859 44.1152 38.2168 43.0605C38.0586 42.5859 37.9795 42.1465 37.9795 41.7422C37.9795 39.3516 39.21 34.0254 41.6709 25.7637C42.0752 24.4102 42.7432 22.2832 43.6748 19.3828C45.8193 12.6328 47.208 7.7373 47.8408 4.69629C47.9111 4.37988 47.9727 4.08105 48.0254 3.7998C47.0059 5.03027 45.1426 8.13281 42.4355 13.1074C39.4473 18.6094 37.3643 22.248 36.1865 24.0234C34.7803 26.1328 33.6729 27.3281 32.8643 27.6094C32.5654 27.7148 32.293 27.7676 32.0469 27.7676C31.0801 27.7676 30.333 27.0205 29.8057 25.5264C29.7881 25.5088 29.7793 25.4912 29.7793 25.4736C28.9355 23.083 28.0566 21.5713 27.1426 20.9385C26.7207 20.6572 26.2637 20.5166 25.7715 20.5166C24.1367 20.5166 22.124 21.8438 19.7334 24.498C19.4873 24.7793 19.25 25.0518 19.0215 25.3154C16.3672 28.5674 13.748 32.8828 11.1641 38.2617C10.8125 39.0176 10.6191 39.4482 10.584 39.5537C10.5488 39.5537 10.3994 39.5625 10.1357 39.5801C8.72949 39.4922 8 38.8418 7.94727 37.6289C7.94727 37.2949 7.98242 36.9785 8.05273 36.6797C8.35156 35.3789 9.48535 32.9707 11.4541 29.4551C13.7393 25.3945 15.2334 22.5996 15.9365 21.0703C17.2021 18.2754 17.835 16.0254 17.835 14.3203C17.8174 13.002 17.4482 11.9385 16.7275 11.1299C16.4463 10.9717 16.1123 10.8926 15.7256 10.8926C14.2314 10.8926 12.0957 11.8154 9.31836 13.6611C6.83984 15.3311 4.97656 16.9746 3.72852 18.5918C3.21875 19.2773 2.91113 19.8574 2.80566 20.332C3.22754 20.332 3.67578 20.2969 4.15039 20.2266ZM51.4004 19.752C51.4707 19.6465 51.5674 19.585 51.6904 19.5674C52.0771 19.5674 52.4902 19.8047 52.9297 20.2793C53.1406 20.5254 53.2549 20.7363 53.2725 20.9121C53.2725 20.9648 53.2549 21.0176 53.2197 21.0703C51.6904 24.3047 50.8467 26.8184 50.6885 28.6113C50.6709 28.7695 50.6621 28.9189 50.6621 29.0596C50.6621 29.3057 50.6973 29.5605 50.7676 29.8242H50.8203C52.2793 29.8242 54.4414 28.3564 57.3066 25.4209C58.0449 24.6475 58.6777 23.9443 59.2051 23.3115C59.2578 23.2412 59.3281 23.2061 59.416 23.2061C59.7148 23.2061 60.0312 23.4697 60.3652 23.9971C60.541 24.2783 60.6289 24.5244 60.6289 24.7354C60.6113 24.8232 60.5762 24.9199 60.5234 25.0254C56.9727 29.2441 54.1162 31.3887 51.9541 31.459C51.7607 31.459 51.5146 31.4238 51.2158 31.3535C50.3721 31.1074 49.7217 30.6064 49.2646 29.8506C48.9658 29.3584 48.8164 28.7256 48.8164 27.9521C48.8164 26.0889 49.6777 23.3555 51.4004 19.752ZM54.3271 18.5654C54.2568 18.6533 54.1602 18.7061 54.0371 18.7236C53.6504 18.7236 53.2461 18.4951 52.8242 18.0381C52.6133 17.7744 52.499 17.5547 52.4814 17.3789C52.4814 17.3262 52.499 17.2646 52.5342 17.1943L54.7227 13.6875C54.793 13.5996 54.8984 13.5557 55.0391 13.5557C55.4434 13.5557 55.8564 13.793 56.2783 14.2676C56.4717 14.4961 56.5771 14.6982 56.5947 14.874C56.5947 14.9268 56.5771 14.9883 56.542 15.0586L54.3271 18.5654ZM66.667 23.417C66.5791 23.5928 66.4561 23.6895 66.2979 23.707C65.9111 23.707 65.5068 23.4434 65.085 22.916C64.8389 22.5996 64.7422 22.3447 64.7949 22.1514L65.1641 21.0703C64.1621 21.2637 62.9932 22.0986 61.6572 23.5752C60.1455 25.2275 59.2578 26.7744 58.9941 28.2158C58.9414 28.4619 58.915 28.6904 58.915 28.9014C58.9326 29.3408 59.0381 29.7188 59.2314 30.0352C59.46 30.0879 59.6797 30.1143 59.8906 30.1143C61.5957 30.1143 64.5576 28.7256 68.7764 25.9482C69.1455 25.7197 69.6816 25.3682 70.3848 24.8936C71.5273 24.1201 72.3096 23.6104 72.7314 23.3643C72.8193 23.3115 72.8896 23.2852 72.9424 23.2852C73.3467 23.2852 73.7686 23.54 74.208 24.0498C74.3838 24.2959 74.4805 24.498 74.498 24.6562C74.4805 24.7793 74.4365 24.8584 74.3662 24.8936C73.9092 25.1748 73.0918 25.7109 71.9141 26.502C68.5391 28.752 66.0166 30.2285 64.3467 30.9316C63.0283 31.4766 61.9033 31.749 60.9717 31.749C60.7959 31.749 60.5762 31.7314 60.3125 31.6963C59.1699 31.5029 58.2822 30.8877 57.6494 29.8506C57.3506 29.3584 57.166 28.8398 57.0957 28.2949C57.0781 28.1895 57.0693 28.0576 57.0693 27.8994C57.0693 26.4229 57.7637 24.7793 59.1523 22.9688C60.4883 21.2637 61.8945 20.1387 63.3711 19.5938C63.8457 19.4355 64.2852 19.3564 64.6895 19.3564C65.6387 19.374 66.3857 19.7959 66.9307 20.6221C67.1064 20.9033 67.1943 21.2021 67.1943 21.5186C67.1943 21.7822 67.0449 22.3447 66.7461 23.2061C66.7109 23.2939 66.6846 23.3643 66.667 23.417ZM91.3467 23.2588C91.4346 23.2061 91.5137 23.1797 91.584 23.1797C91.9883 23.1797 92.3838 23.4346 92.7705 23.9443C92.9463 24.1729 93.0342 24.3662 93.0342 24.5244C93.0166 24.6475 92.9727 24.7354 92.9023 24.7881C92.7266 24.9111 92.4277 25.1133 92.0059 25.3945C89.5977 27.0117 87.7432 28.0137 86.4424 28.4004C85.8447 28.5762 85.2998 28.6641 84.8076 28.6641C83.8936 28.6465 83.1377 28.3477 82.54 27.7676C81.749 26.9766 81.3008 25.6055 81.1953 23.6543C81.1953 23.6016 81.1777 23.2324 81.1426 22.5469C79.8945 23.3203 78.207 25.2451 76.0801 28.3213C74.2344 30.9756 73.2236 32.4258 73.0479 32.6719C72.8018 32.9883 72.582 33.252 72.3887 33.4629C72.2129 33.5684 72.0371 33.6211 71.8613 33.6211C71.334 33.6211 70.877 33.3223 70.4902 32.7246C70.2969 32.4258 70.2002 32.1357 70.2002 31.8545C70.2002 30.8877 71.0527 27.9434 72.7578 23.0215C74.4805 18.0996 76.2031 13.415 77.9258 8.96777L80.4834 2.29688C80.5537 2.19141 80.6592 2.12988 80.7998 2.1123C81.1865 2.1123 81.5996 2.34082 82.0391 2.79785C82.3203 3.11426 82.4258 3.37793 82.3555 3.58887L77.4512 16.6406C75.4824 21.9844 74.0498 26.0625 73.1533 28.875C73.3291 28.6289 73.6279 28.1982 74.0498 27.583C76.2295 24.4189 77.8203 22.3887 78.8223 21.4922C78.9805 21.3691 79.1299 21.2549 79.2705 21.1494C79.6221 20.8857 79.9561 20.7539 80.2725 20.7539C80.501 20.7715 80.7734 20.8594 81.0898 21.0176C82.1445 21.6152 82.7686 22.5645 82.9619 23.8652C82.9971 24.0938 83.0234 24.4453 83.041 24.9199C83.1289 25.9395 83.2695 26.6689 83.4629 27.1084H83.5684C84.7812 27.1084 87.374 25.8252 91.3467 23.2588ZM98.7295 22.125C98.5889 22.4238 98.2109 22.3711 97.5957 21.9668C97.4902 21.8965 97.4023 21.8262 97.332 21.7559C95.9609 22.1426 94.7217 22.8896 93.6143 23.9971C92.6475 24.9814 92.1553 25.9482 92.1377 26.8975C92.1377 27.1084 92.1641 27.3018 92.2168 27.4775C92.8848 27.4248 93.8164 26.9326 95.0117 26.001C96.207 25.0693 97.0771 24.3223 97.6221 23.7598C98.1846 23.1973 98.6855 22.6787 99.125 22.2041L99.1514 22.1777C99.2744 22.0371 99.4238 21.9668 99.5996 21.9668C100.021 21.9668 100.426 22.2568 100.812 22.8369C100.953 23.0479 101.023 23.2236 101.023 23.3643C101.006 23.417 100.988 23.4521 100.971 23.4697C100.865 24.2432 100.812 24.9111 100.812 25.4736C100.812 26.001 100.874 26.4756 100.997 26.8975C101.103 27.1084 101.296 27.2227 101.577 27.2402C102.737 27.2402 105.365 25.9658 109.461 23.417C109.531 23.3643 109.61 23.3379 109.698 23.3379C110.085 23.3379 110.472 23.584 110.858 24.0762C111.034 24.3223 111.131 24.5332 111.148 24.709C111.131 24.832 111.078 24.9199 110.99 24.9727C110.779 25.1133 110.437 25.333 109.962 25.6318C107.483 27.2139 105.629 28.1895 104.398 28.5586C103.783 28.752 103.221 28.8486 102.711 28.8486C102.5 28.8486 102.228 28.8135 101.894 28.7432C100.241 28.3213 99.2744 27.2578 98.9932 25.5527C96.4619 27.9082 94.5283 29.0947 93.1924 29.1123H92.9551C92.0586 29.0068 91.3291 28.5234 90.7666 27.6621C90.5908 27.3809 90.459 27.0908 90.3711 26.792C90.3008 26.5283 90.2656 26.2383 90.2656 25.9219C90.2656 24.4629 91.1182 23.0654 92.8232 21.7295C93.8252 20.9561 94.8359 20.4199 95.8555 20.1211C96.1016 20.0508 96.3652 20.0156 96.6465 20.0156C97.3848 20.0332 97.9912 20.3232 98.4658 20.8857C98.7998 21.3252 98.8877 21.7383 98.7295 22.125ZM120.113 23.3906C120.201 23.3379 120.289 23.3115 120.377 23.3115C120.746 23.3115 121.115 23.5664 121.484 24.0762C121.678 24.3223 121.774 24.5332 121.774 24.709C121.757 24.8496 121.73 24.9375 121.695 24.9727C120.834 25.6055 118.936 27.583 116 30.9053C112.959 34.3682 110.955 36.5039 109.988 37.3125C109.391 37.8223 108.951 38.0859 108.67 38.1035H108.485C106.974 38.0684 106.209 37.1104 106.191 35.2295C106.191 31.96 109.145 23.1885 115.051 8.91504C115.227 8.45801 115.446 7.92187 115.71 7.30664C116.87 4.5293 117.529 2.90332 117.688 2.42871C117.758 2.30566 117.854 2.24414 117.978 2.24414C118.382 2.24414 118.795 2.46387 119.217 2.90332C119.428 3.14941 119.542 3.36914 119.56 3.5625C119.56 3.93164 119.146 5.04785 118.32 6.91113C118.004 7.61426 117.749 8.18555 117.556 8.625C113.126 19.3828 110.287 26.9326 109.039 31.2744C108.424 33.4541 108.107 35.0889 108.09 36.1787C109.303 35.3701 111.254 33.4014 113.943 30.2725C116.721 27.0381 118.496 25.0254 119.27 24.2344C119.568 23.918 119.85 23.6367 120.113 23.3906ZM128.551 20.2266H128.656C129.096 20.2266 129.518 20.4814 129.922 20.9912C130.08 21.2197 130.168 21.4131 130.186 21.5713C130.15 21.7295 130.062 21.8262 129.922 21.8613C129.359 21.9492 128.902 21.9932 128.551 21.9932C127.619 21.9756 126.819 21.7031 126.151 21.1758C125.589 20.6836 125.299 20.1387 125.281 19.541C125.281 19.3828 125.29 19.2686 125.308 19.1982C125.554 17.8799 126.758 16.2891 128.92 14.4258C131.258 12.4219 133.648 10.9717 136.092 10.0752C137.27 9.63574 138.307 9.41602 139.203 9.41602C139.73 9.41602 140.205 9.49512 140.627 9.65332C141.225 9.89941 141.761 10.2686 142.235 10.7607C143.343 11.9561 143.896 13.459 143.896 15.2695C143.879 17.6602 142.938 20.7803 141.075 24.6299C143.571 21.3955 145.848 19.5498 147.904 19.0928C148.273 19.0049 148.634 18.9609 148.985 18.9609C150.04 18.9785 151.016 19.2949 151.912 19.9102C153.564 21.0879 154.9 23.0918 155.92 25.9219C157.168 25.2715 159.022 22.7139 161.483 18.249C162.046 17.2295 162.907 15.6211 164.067 13.4238C166.687 8.44922 168.567 5.15332 169.71 3.53613C170.571 2.34082 171.318 1.5498 171.951 1.16309C172.18 1.02246 172.426 0.952148 172.689 0.952148C173.252 0.987305 173.753 1.37402 174.192 2.1123C174.315 2.32324 174.377 2.66602 174.377 3.14062C174.377 5.17969 173.103 10.251 170.554 18.3545C170.378 18.8994 170.255 19.2949 170.185 19.541C168.11 26.3262 166.977 30.0615 166.783 30.7471C165.764 34.3682 165.025 37.4795 164.568 40.0811C164.357 41.4521 164.252 42.5068 164.252 43.2451C164.252 43.5088 164.278 43.6758 164.331 43.7461C164.384 43.8164 164.428 43.8867 164.463 43.957C164.516 44.0273 164.551 44.0977 164.568 44.168C164.604 44.2383 164.621 44.2998 164.621 44.3525C164.621 44.4053 164.612 44.4492 164.595 44.4844C164.577 44.5195 164.542 44.5547 164.489 44.5898C164.454 44.625 164.41 44.6426 164.357 44.6426H164.199C163.514 44.6426 162.986 44.1152 162.617 43.0605C162.459 42.5859 162.38 42.1465 162.38 41.7422C162.38 39.3516 163.61 34.0254 166.071 25.7637C166.476 24.4102 167.144 22.2832 168.075 19.3828C170.22 12.6328 171.608 7.7373 172.241 4.69629C172.312 4.37988 172.373 4.08105 172.426 3.7998C171.406 5.03027 169.543 8.13281 166.836 13.1074C163.848 18.6094 161.765 22.248 160.587 24.0234C159.181 26.1328 158.073 27.3281 157.265 27.6094C156.966 27.7148 156.693 27.7676 156.447 27.7676C155.48 27.7676 154.733 27.0205 154.206 25.5264C154.188 25.5088 154.18 25.4912 154.18 25.4736C153.336 23.083 152.457 21.5713 151.543 20.9385C151.121 20.6572 150.664 20.5166 150.172 20.5166C148.537 20.5166 146.524 21.8438 144.134 24.498C143.888 24.7793 143.65 25.0518 143.422 25.3154C140.768 28.5674 138.148 32.8828 135.564 38.2617C135.213 39.0176 135.02 39.4482 134.984 39.5537C134.949 39.5537 134.8 39.5625 134.536 39.5801C133.13 39.4922 132.4 38.8418 132.348 37.6289C132.348 37.2949 132.383 36.9785 132.453 36.6797C132.752 35.3789 133.886 32.9707 135.854 29.4551C138.14 25.3945 139.634 22.5996 140.337 21.0703C141.603 18.2754 142.235 16.0254 142.235 14.3203C142.218 13.002 141.849 11.9385 141.128 11.1299C140.847 10.9717 140.513 10.8926 140.126 10.8926C138.632 10.8926 136.496 11.8154 133.719 13.6611C131.24 15.3311 129.377 16.9746 128.129 18.5918C127.619 19.2773 127.312 19.8574 127.206 20.332C127.628 20.332 128.076 20.2969 128.551 20.2266ZM175.801 19.752C175.871 19.6465 175.968 19.585 176.091 19.5674C176.478 19.5674 176.891 19.8047 177.33 20.2793C177.541 20.5254 177.655 20.7363 177.673 20.9121C177.673 20.9648 177.655 21.0176 177.62 21.0703C176.091 24.3047 175.247 26.8184 175.089 28.6113C175.071 28.7695 175.062 28.9189 175.062 29.0596C175.062 29.3057 175.098 29.5605 175.168 29.8242H175.221C176.68 29.8242 178.842 28.3564 181.707 25.4209C182.445 24.6475 183.078 23.9443 183.605 23.3115C183.658 23.2412 183.729 23.2061 183.816 23.2061C184.115 23.2061 184.432 23.4697 184.766 23.9971C184.941 24.2783 185.029 24.5244 185.029 24.7354C185.012 24.8232 184.977 24.9199 184.924 25.0254C181.373 29.2441 178.517 31.3887 176.354 31.459C176.161 31.459 175.915 31.4238 175.616 31.3535C174.772 31.1074 174.122 30.6064 173.665 29.8506C173.366 29.3584 173.217 28.7256 173.217 27.9521C173.217 26.0889 174.078 23.3555 175.801 19.752ZM178.728 18.5654C178.657 18.6533 178.561 18.7061 178.438 18.7236C178.051 18.7236 177.646 18.4951 177.225 18.0381C177.014 17.7744 176.899 17.5547 176.882 17.3789C176.882 17.3262 176.899 17.2646 176.935 17.1943L179.123 13.6875C179.193 13.5996 179.299 13.5557 179.439 13.5557C179.844 13.5557 180.257 13.793 180.679 14.2676C180.872 14.4961 180.978 14.6982 180.995 14.874C180.995 14.9268 180.978 14.9883 180.942 15.0586L178.728 18.5654ZM194.047 23.3906C194.135 23.3379 194.223 23.3115 194.311 23.3115C194.68 23.3115 195.049 23.5664 195.418 24.0762C195.611 24.3223 195.708 24.5332 195.708 24.709C195.69 24.8496 195.664 24.9375 195.629 24.9727C194.768 25.6055 192.869 27.583 189.934 30.9053C186.893 34.3682 184.889 36.5039 183.922 37.3125C183.324 37.8223 182.885 38.0859 182.604 38.1035H182.419C180.907 38.0684 180.143 37.1104 180.125 35.2295C180.125 31.96 183.078 23.1885 188.984 8.91504C189.16 8.45801 189.38 7.92187 189.644 7.30664C190.804 4.5293 191.463 2.90332 191.621 2.42871C191.691 2.30566 191.788 2.24414 191.911 2.24414C192.315 2.24414 192.729 2.46387 193.15 2.90332C193.361 3.14941 193.476 3.36914 193.493 3.5625C193.493 3.93164 193.08 5.04785 192.254 6.91113C191.938 7.61426 191.683 8.18555 191.489 8.625C187.06 19.3828 184.221 26.9326 182.973 31.2744C182.357 33.4541 182.041 35.0889 182.023 36.1787C183.236 35.3701 185.188 33.4014 187.877 30.2725C190.654 27.0381 192.43 25.0254 193.203 24.2344C193.502 23.918 193.783 23.6367 194.047 23.3906ZM196.947 22.4678C197.352 22.8193 197.562 23.0918 197.58 23.2852C197.58 23.4082 197.413 23.5488 197.079 23.707C196.886 23.7949 196.754 23.8652 196.684 23.918C196.965 24.8496 197.773 25.4648 199.109 25.7637C199.812 24.498 200.164 23.3906 200.164 22.4414C200.164 22.0723 200.103 21.7822 199.979 21.5713C199.927 21.5186 199.821 21.4922 199.663 21.4922C198.872 21.4922 198.134 21.6768 197.448 22.0459C197.22 22.1865 197.053 22.3271 196.947 22.4678ZM194.759 22.6523C194.759 22.6172 194.75 22.5645 194.732 22.4941C194.732 22.4414 194.732 22.3975 194.732 22.3623C194.732 21.3076 195.312 20.5781 196.473 20.1738C196.947 19.998 197.457 19.9102 198.002 19.9102C199.268 19.9277 200.243 20.2705 200.929 20.9385C201.649 21.6416 202.01 22.5557 202.01 23.6807C202.01 24.3486 201.86 25.0342 201.562 25.7373C203.565 25.3506 205.314 24.5508 206.809 23.3379C206.879 23.2852 206.958 23.2588 207.046 23.2588C207.415 23.2588 207.784 23.5049 208.153 23.9971C208.329 24.2256 208.426 24.4277 208.443 24.6035C208.426 24.709 208.382 24.7881 208.312 24.8408C206.132 26.5986 203.847 27.4775 201.456 27.4775C201.122 27.4775 200.876 27.4688 200.718 27.4512C199.136 30.0176 197.281 31.3008 195.154 31.3008C194.24 31.3008 193.511 31.1074 192.966 30.7207C192.931 30.668 192.904 30.6328 192.887 30.6152C191.99 29.9648 191.542 29.1299 191.542 28.1104C191.542 26.7217 192.263 25.2363 193.704 23.6543C194.056 23.2676 194.407 22.9336 194.759 22.6523ZM195.734 24.8145C194.521 26.1152 193.766 27.3545 193.467 28.5322C193.432 28.7256 193.405 28.9014 193.388 29.0596C193.37 29.376 193.37 29.5781 193.388 29.666C193.634 29.7715 193.889 29.8242 194.152 29.8242C195.242 29.8242 196.429 29.1123 197.712 27.6885C197.958 27.4072 198.187 27.126 198.397 26.8447C197.308 26.335 196.42 25.6582 195.734 24.8145ZM209.05 19.3301C209.12 19.2422 209.208 19.1982 209.313 19.1982C209.7 19.1982 210.113 19.4355 210.553 19.9102C210.764 20.1562 210.878 20.3672 210.896 20.543C210.896 20.6133 210.878 20.6748 210.843 20.7275C209.331 22.9248 208.303 24.9111 207.758 26.6865C207.564 27.3193 207.468 27.8555 207.468 28.2949C207.468 28.5059 207.477 28.6553 207.494 28.7432C208.285 28.4619 209.401 27.5742 210.843 26.0801C212.267 24.6035 213.805 22.6875 215.457 20.332C215.598 20.1562 215.756 20.0684 215.932 20.0684C216.354 20.0684 216.749 20.3496 217.118 20.9121C217.259 21.1582 217.329 21.3516 217.329 21.4922C217.329 21.5449 217.312 21.5977 217.276 21.6504C216.292 24.7969 215.773 27.2578 215.721 29.0332C215.721 29.3496 215.747 29.6396 215.8 29.9033C217.171 29.7275 218.639 28.4707 220.203 26.1328C221.486 24.2168 222.321 22.4414 222.708 20.8066C222.726 20.7188 222.743 20.6484 222.761 20.5957C222.761 20.5781 222.761 20.543 222.761 20.4902C222.778 20.4375 222.787 20.376 222.787 20.3057C222.805 20.2354 222.822 20.1562 222.84 20.0684C222.857 19.9805 222.866 19.8926 222.866 19.8047C222.884 19.6992 222.901 19.6025 222.919 19.5146C222.937 19.4268 222.945 19.3389 222.945 19.251C222.963 19.1631 222.98 19.084 222.998 19.0137C223.016 18.9434 223.033 18.8906 223.051 18.8555V18.7764C223.121 18.6885 223.235 18.6445 223.394 18.6445C223.886 18.6445 224.29 18.8643 224.606 19.3037C224.782 19.585 224.87 19.8838 224.87 20.2002C224.87 20.3936 224.835 20.7451 224.765 21.2549C224.677 22.0459 224.633 22.6699 224.633 23.127C224.65 24.2871 224.87 24.9814 225.292 25.21C225.608 25.333 225.969 25.3945 226.373 25.3945C227.85 25.3945 229.897 24.7266 232.517 23.3906C232.569 23.373 232.64 23.3643 232.728 23.3643C233.132 23.3643 233.554 23.6104 233.993 24.1025C234.169 24.3486 234.266 24.5508 234.283 24.709C234.266 24.832 234.213 24.9199 234.125 24.9727C231.488 26.3262 229.326 27.0029 227.639 27.0029C226.83 27.0029 226.145 26.8711 225.582 26.6074C224.738 26.2207 224.07 25.6758 223.578 24.9727C222.822 26.6074 221.803 28.0928 220.52 29.4287C219.166 30.8174 217.936 31.5117 216.828 31.5117C216.283 31.4941 215.756 31.292 215.246 30.9053C214.35 30.167 213.901 29.0244 213.901 27.4775C213.901 27.0381 213.945 26.5283 214.033 25.9482C211.836 28.5146 210.148 29.9824 208.971 30.3516C208.848 30.3867 208.698 30.4043 208.522 30.4043C208.347 30.4043 208.162 30.3779 207.969 30.3252C207.775 30.2725 207.6 30.2109 207.441 30.1406C207.283 30.0527 207.143 29.9736 207.02 29.9033C206.914 29.8154 206.826 29.7451 206.756 29.6924C206.686 29.6221 206.659 29.5869 206.677 29.5869C206.026 28.9541 205.701 28.1279 205.701 27.1084C205.701 25.1045 206.817 22.5117 209.05 19.3301ZM234.23 19.752C234.301 19.6465 234.397 19.585 234.521 19.5674C234.907 19.5674 235.32 19.8047 235.76 20.2793C235.971 20.5254 236.085 20.7363 236.103 20.9121C236.103 20.9648 236.085 21.0176 236.05 21.0703C234.521 24.3047 233.677 26.8184 233.519 28.6113C233.501 28.7695 233.492 28.9189 233.492 29.0596C233.492 29.3057 233.527 29.5605 233.598 29.8242H233.65C235.109 29.8242 237.271 28.3564 240.137 25.4209C240.875 24.6475 241.508 23.9443 242.035 23.3115C242.088 23.2412 242.158 23.2061 242.246 23.2061C242.545 23.2061 242.861 23.4697 243.195 23.9971C243.371 24.2783 243.459 24.5244 243.459 24.7354C243.441 24.8232 243.406 24.9199 243.354 25.0254C239.803 29.2441 236.946 31.3887 234.784 31.459C234.591 31.459 234.345 31.4238 234.046 31.3535C233.202 31.1074 232.552 30.6064 232.095 29.8506C231.796 29.3584 231.646 28.7256 231.646 27.9521C231.646 26.0889 232.508 23.3555 234.23 19.752ZM237.157 18.5654C237.087 18.6533 236.99 18.7061 236.867 18.7236C236.48 18.7236 236.076 18.4951 235.654 18.0381C235.443 17.7744 235.329 17.5547 235.312 17.3789C235.312 17.3262 235.329 17.2646 235.364 17.1943L237.553 13.6875C237.623 13.5996 237.729 13.5557 237.869 13.5557C238.273 13.5557 238.687 13.793 239.108 14.2676C239.302 14.4961 239.407 14.6982 239.425 14.874C239.425 14.9268 239.407 14.9883 239.372 15.0586L237.157 18.5654ZM249.497 23.417C249.409 23.5928 249.286 23.6895 249.128 23.707C248.741 23.707 248.337 23.4434 247.915 22.916C247.669 22.5996 247.572 22.3447 247.625 22.1514L247.994 21.0703C246.992 21.2637 245.823 22.0986 244.487 23.5752C242.976 25.2275 242.088 26.7744 241.824 28.2158C241.771 28.4619 241.745 28.6904 241.745 28.9014C241.763 29.3408 241.868 29.7188 242.062 30.0352C242.29 30.0879 242.51 30.1143 242.721 30.1143C244.426 30.1143 247.388 28.7256 251.606 25.9482C251.976 25.7197 252.512 25.3682 253.215 24.8936C254.357 24.1201 255.14 23.6104 255.562 23.3643C255.649 23.3115 255.72 23.2852 255.772 23.2852C256.177 23.2852 256.599 23.54 257.038 24.0498C257.214 24.2959 257.311 24.498 257.328 24.6562C257.311 24.7793 257.267 24.8584 257.196 24.8936C256.739 25.1748 255.922 25.7109 254.744 26.502C251.369 28.752 248.847 30.2285 247.177 30.9316C245.858 31.4766 244.733 31.749 243.802 31.749C243.626 31.749 243.406 31.7314 243.143 31.6963C242 31.5029 241.112 30.8877 240.479 29.8506C240.181 29.3584 239.996 28.8398 239.926 28.2949C239.908 28.1895 239.899 28.0576 239.899 27.8994C239.899 26.4229 240.594 24.7793 241.982 22.9688C243.318 21.2637 244.725 20.1387 246.201 19.5938C246.676 19.4355 247.115 19.3564 247.52 19.3564C248.469 19.374 249.216 19.7959 249.761 20.6221C249.937 20.9033 250.024 21.2021 250.024 21.5186C250.024 21.7822 249.875 22.3447 249.576 23.2061C249.541 23.2939 249.515 23.3643 249.497 23.417ZM257.144 24.9727C257.056 25.0254 256.977 25.0518 256.906 25.0518C256.502 25.0518 256.089 24.8057 255.667 24.3135C255.474 24.085 255.368 23.8828 255.351 23.707C255.368 23.6016 255.403 23.5225 255.456 23.4697C255.456 23.4697 256.098 22.9775 257.381 21.9932C258.699 21.0791 259.692 20.5342 260.36 20.3584C260.483 20.3232 260.642 20.3057 260.835 20.3057C261.292 20.3232 261.723 20.4902 262.127 20.8066C262.531 21.1406 262.733 21.5801 262.733 22.125C262.733 23.0742 262.021 24.542 260.598 26.5283C260.404 26.7744 260.281 26.9414 260.229 27.0293C261.336 27.0996 262.215 27.4512 262.865 28.084C263.551 27.5918 264.254 27.0996 264.975 26.6074C265.695 26.1152 266.319 25.6934 266.847 25.3418C267.392 24.9902 267.884 24.6826 268.323 24.4189C268.763 24.1377 269.105 23.918 269.352 23.7598L269.694 23.5488C270.011 23.3555 270.371 23.3994 270.775 23.6807C270.863 23.7334 270.934 23.7861 270.986 23.8389C271.426 24.2607 271.575 24.5947 271.435 24.8408C271.399 24.876 271.373 24.9023 271.355 24.9199C271.355 24.9199 271.241 24.999 271.013 25.1572C268.323 26.9502 265.871 28.6377 263.656 30.2197C263.498 31.7139 262.268 33.6738 259.965 36.0996C258.066 38.0859 256.309 39.5273 254.691 40.4238C254.357 40.6172 254.059 40.7578 253.795 40.8457C253.602 40.916 253.382 40.9512 253.136 40.9512C252.345 40.9512 251.703 40.6523 251.211 40.0547C250.947 39.7207 250.815 39.3779 250.815 39.0264C250.815 38.8506 250.833 38.71 250.868 38.6045C251.413 36.9346 255.052 33.6826 261.784 28.8486C261.591 28.7432 261.283 28.6904 260.861 28.6904C259.965 28.6904 259.244 28.7783 258.699 28.9541H258.673C258.638 28.9717 258.611 28.9805 258.594 28.9805C258.172 28.9805 257.75 28.7344 257.328 28.2422C257.152 28.0137 257.056 27.8115 257.038 27.6357C257.056 27.5654 257.082 27.5039 257.117 27.4512C258.154 26.1504 259.139 24.6914 260.07 23.0742C260.158 22.9336 260.237 22.8018 260.308 22.6787C259.306 23.2764 258.251 24.041 257.144 24.9727ZM259.227 33.5156C256.396 35.7129 254.489 37.418 253.505 38.6309C255.386 37.4707 257.293 35.7656 259.227 33.5156Z" fill="#0D7CE4"/>
</svg>
